<svg width="9" height="11" viewBox="0 0 11 11" fill="none" xmlns="http://www.w3.org/2000/svg">
<path d="M6.56201 1.9354L6.97911 1.5183C7.67021 0.827232 8.79062 0.827232 9.48172 1.5183C10.1728 2.20937 10.1728 3.32981 9.48172 4.02087L9.06461 4.43797M6.56201 1.9354C6.56201 1.9354 6.61421 2.82172 7.39621 3.60378C8.17831 4.38583 9.06461 4.43797 9.06461 4.43797M6.56201 1.9354L2.72751 5.76995C2.46771 6.02968 2.33791 6.15954 2.22621 6.30273C2.09451 6.47163 1.98151 6.65439 1.88941 6.84776C1.81121 7.01169 1.75321 7.18591 1.63701 7.53437L1.26511 8.65M9.06461 4.43797L5.23001 8.27253C4.97031 8.53225 4.84051 8.66211 4.69731 8.7738C4.52841 8.90554 4.34561 9.0185 4.15221 9.1106C3.98831 9.1888 3.81411 9.2468 3.46561 9.363L2.35001 9.7349M1.26511 8.65L1.02451 9.3719C0.967314 9.5433 1.01201 9.7324 1.13981 9.8602C1.26761 9.988 1.45671 10.0327 1.62811 9.9755L2.35001 9.7349M1.26511 8.65L2.35001 9.7349" stroke="#8790A4" stroke-width="1"/>
</svg>
