<svg width="24" height="22" viewBox="0 0 24 22" fill="none" xmlns="http://www.w3.org/2000/svg">
<path d="M20.4423 2.72753L20.7526 2.40312C21.2667 1.86563 22.1002 1.86563 22.6144 2.40312C23.1285 2.94062 23.1285 3.81207 22.6144 4.34956L22.3041 4.67397M20.4423 2.72753C20.4423 2.72753 20.4811 3.41689 21.0629 4.02515C21.6447 4.63341 22.3041 4.67397 22.3041 4.67397M20.4423 2.72753L17.5895 5.70995C17.3963 5.91196 17.2997 6.01296 17.2166 6.12433C17.1186 6.2557 17.0346 6.39784 16.966 6.54824C16.9079 6.67574 16.8647 6.81124 16.7783 7.08227L16.5016 7.94998M22.3041 4.67397L19.4513 7.65639C19.2581 7.85839 19.1615 7.95939 19.055 8.04626C18.9293 8.14873 18.7933 8.23659 18.6495 8.30822C18.5275 8.36904 18.3979 8.41415 18.1387 8.50453L17.3087 8.79378M16.5016 7.94998L16.3226 8.51145C16.28 8.64476 16.3133 8.79184 16.4084 8.89124C16.5034 8.99064 16.6441 9.0254 16.7716 8.98092L17.3087 8.79378M16.5016 7.94998L17.3087 8.79378" stroke="#1C274C" stroke-width="1.5"/>
<path d="M8.6522 9C10.7653 9 12.4783 7.20914 12.4783 5C12.4783 2.79086 10.7653 1 8.6522 1C6.53911 1 4.82611 2.79086 4.82611 5C4.82611 7.20914 6.53911 9 8.6522 9Z" stroke="#1C274C" stroke-width="1.5"/>
<path d="M16.302 17C16.3043 16.8358 16.3043 16.669 16.3043 16.5C16.3043 14.0147 12.8784 12 8.65217 12C4.42599 12 1 14.0147 1 16.5C1 18.9853 1 21 8.65217 21C10.7862 21 12.325 20.8433 13.4348 20.5634" stroke="#1C274C" stroke-width="1.5" stroke-linecap="round"/>
</svg>
