<svg width="14" height="18" viewBox="0 0 18 18" fill="none" xmlns="http://www.w3.org/2000/svg">
<path d="M10.888 2.66293L11.6295 1.92142C12.8581 0.692859 14.8499 0.692859 16.0785 1.92142C17.3072 3.14999 17.3072 5.14187 16.0785 6.37042L15.337 7.11192M10.888 2.66293C10.888 2.66293 10.9808 4.2386 12.371 5.62893C13.7614 7.01923 15.337 7.11192 15.337 7.11192M10.888 2.66293L4.07112 9.47988C3.60926 9.94162 3.3785 10.1725 3.17993 10.427C2.94579 10.7273 2.74491 11.0522 2.58117 11.396C2.44215 11.6874 2.33904 11.9971 2.13246 12.6166L1.47131 14.5999M15.337 7.11192L8.51999 13.9289C8.0583 14.3906 7.82755 14.6215 7.57297 14.82C7.27271 15.0542 6.94773 15.2551 6.60391 15.4188C6.31254 15.5578 6.00285 15.6609 5.38329 15.8675L3.40002 16.5286M1.47131 14.5999L1.04358 15.8833C0.941892 16.188 1.02136 16.5242 1.24856 16.7514C1.47576 16.9786 1.81193 17.0581 2.11664 16.9564L3.40002 16.5286M1.47131 14.5999L3.40002 16.5286" stroke="white" stroke-width="1.5"/>
</svg>
