<svg width="23" height="22" viewBox="0 0 25 22" fill="none" xmlns="http://www.w3.org/2000/svg">
<path d="M21.326 2.72753L21.6504 2.40312C22.1879 1.86563 23.0593 1.86563 23.5969 2.40312C24.1344 2.94062 24.1344 3.81207 23.5969 4.34956L23.2725 4.67397M21.326 2.72753C21.326 2.72753 21.3666 3.41689 21.9748 4.02515C22.5831 4.63341 23.2725 4.67397 23.2725 4.67397M21.326 2.72753L18.3436 5.70995C18.1416 5.91196 18.0406 6.01296 17.9537 6.12433C17.8513 6.2557 17.7634 6.39784 17.6918 6.54824C17.6309 6.67574 17.5858 6.81124 17.4955 7.08227L17.2062 7.94998M23.2725 4.67397L20.29 7.65639C20.088 7.85839 19.9871 7.95939 19.8757 8.04626C19.7443 8.14873 19.6021 8.23659 19.4517 8.30822C19.3242 8.36904 19.1887 8.41415 18.9177 8.50453L18.05 8.79378M17.2062 7.94998L17.0191 8.51145C16.9746 8.64476 17.0093 8.79184 17.1087 8.89124C17.2081 8.99064 17.3552 9.0254 17.4885 8.98092L18.05 8.79378M17.2062 7.94998L18.05 8.79378" stroke="white" stroke-width="1.5"/>
<path d="M9 9C11.2091 9 13 7.20914 13 5C13 2.79086 11.2091 1 9 1C6.79086 1 5 2.79086 5 5C5 7.20914 6.79086 9 9 9Z" stroke="white" stroke-width="1.5"/>
<path d="M16.9975 17C17 16.8358 17 16.669 17 16.5C17 14.0147 13.4183 12 9 12C4.58172 12 1 14.0147 1 16.5C1 18.9853 1 21 9 21C11.231 21 12.8398 20.8433 14 20.5634" stroke="white" stroke-width="1.5" stroke-linecap="round"/>
</svg>
