<svg width="40" height="40" viewBox="0 0 40 40" fill="none" xmlns="http://www.w3.org/2000/svg">
<path fill-rule="evenodd" clip-rule="evenodd" d="M20.0001 2.08325C15.7443 2.08107 11.6266 3.5939 8.38445 6.35086C5.14231 9.10782 2.98741 12.9289 2.30565 17.1298C1.62388 21.3307 2.45975 25.6371 4.6636 29.2779C6.86745 32.9187 10.2953 35.6561 14.3335 36.9999C15.2335 37.1666 15.5585 36.6166 15.5585 36.1666C15.5585 35.7166 15.5585 34.6166 15.5585 33.1249C10.5585 34.2083 9.52513 30.7249 9.52513 30.7249C9.19441 29.6228 8.47484 28.6782 7.50013 28.0666C5.87513 26.9583 7.62513 26.9749 7.62513 26.9749C8.19276 27.0544 8.73477 27.2623 9.20988 27.5829C9.68499 27.9035 10.0807 28.3283 10.3668 28.8249C11.9668 31.5666 14.5335 30.7749 15.5835 30.3166C15.6664 29.4062 16.0712 28.5553 16.7251 27.9166C12.7418 27.4666 8.55847 25.9333 8.55847 19.0666C8.53206 17.2852 9.19487 15.5625 10.4085 14.2583C9.8571 12.7137 9.91974 11.0163 10.5835 9.51659C10.5835 9.51659 12.0835 9.03326 15.5085 11.3499C18.4438 10.5499 21.5398 10.5499 24.4751 11.3499C27.9001 9.03326 29.4001 9.51659 29.4001 9.51659C30.0588 11.0175 30.1214 12.7129 29.5751 14.2583C30.7864 15.5634 31.4463 17.2862 31.4168 19.0666C31.4168 25.9499 27.2501 27.4583 23.2418 27.9083C23.6719 28.344 24.0032 28.8673 24.2131 29.4424C24.423 30.0176 24.5067 30.6312 24.4585 31.2416C24.4585 33.6333 24.4585 35.5666 24.4585 36.1583C24.4585 36.7499 24.7835 37.1916 25.6918 36.9916C29.7258 35.6425 33.1482 32.9022 35.3469 29.261C37.5456 25.6197 38.377 21.3149 37.6925 17.1167C37.008 12.9186 34.8522 9.10089 31.6108 6.34659C28.3694 3.59229 24.2537 2.08106 20.0001 2.08325Z" stroke="black" stroke-width="2.064" stroke-linecap="round" stroke-linejoin="round"/>
</svg>
