<svg width="38" height="38" viewBox="0 0 38 38" fill="none" xmlns="http://www.w3.org/2000/svg">
<path fill-rule="evenodd" clip-rule="evenodd" d="M19 28.5C24.2467 28.5 28.5 24.2467 28.5 19C28.5 13.7533 24.2467 9.5 19 9.5C13.7533 9.5 9.5 13.7533 9.5 19C9.5 24.2467 13.7533 28.5 19 28.5ZM19 25.3333C22.4977 25.3333 25.3333 22.4977 25.3333 19C25.3333 15.5022 22.4977 12.6667 19 12.6667C15.5022 12.6667 12.6667 15.5022 12.6667 19C12.6667 22.4977 15.5022 25.3333 19 25.3333Z" fill="#0F0F0F"/>
<path d="M28.4998 7.9165C27.6254 7.9165 26.9165 8.62539 26.9165 9.49984C26.9165 10.3743 27.6254 11.0832 28.4998 11.0832C29.3743 11.0832 30.0832 10.3743 30.0832 9.49984C30.0832 8.62539 29.3743 7.9165 28.4998 7.9165Z" fill="#0F0F0F"/>
<path fill-rule="evenodd" clip-rule="evenodd" d="M2.61869 6.77035C1.58325 8.80251 1.58325 11.4628 1.58325 16.7833V21.2166C1.58325 26.5371 1.58325 29.1974 2.61869 31.2294C3.52949 33.017 4.9828 34.4704 6.77035 35.3811C8.80251 36.4166 11.4628 36.4166 16.7833 36.4166H21.2166C26.5371 36.4166 29.1974 36.4166 31.2294 35.3811C33.017 34.4704 34.4704 33.017 35.3811 31.2294C36.4166 29.1974 36.4166 26.5371 36.4166 21.2166V16.7833C36.4166 11.4628 36.4166 8.80251 35.3811 6.77035C34.4704 4.9828 33.017 3.52949 31.2294 2.61869C29.1974 1.58325 26.5371 1.58325 21.2166 1.58325H16.7833C11.4628 1.58325 8.80251 1.58325 6.77035 2.61869C4.9828 3.52949 3.52949 4.9828 2.61869 6.77035ZM21.2166 4.74992H16.7833C14.0707 4.74992 12.2268 4.75239 10.8015 4.86883C9.41322 4.98226 8.70325 5.18785 8.20798 5.4402C7.01629 6.04741 6.04741 7.01629 5.4402 8.20798C5.18785 8.70325 4.98226 9.41322 4.86883 10.8015C4.75239 12.2268 4.74992 14.0707 4.74992 16.7833V21.2166C4.74992 23.9291 4.75239 25.7729 4.86883 27.1983C4.98226 28.5867 5.18785 29.2966 5.4402 29.7919C6.04741 30.9835 7.01629 31.9524 8.20798 32.5596C8.70325 32.812 9.41322 33.0176 10.8015 33.131C12.2268 33.2474 14.0707 33.2499 16.7833 33.2499H21.2166C23.9291 33.2499 25.7729 33.2474 27.1983 33.131C28.5867 33.0176 29.2966 32.812 29.7919 32.5596C30.9835 31.9524 31.9524 30.9835 32.5596 29.7919C32.812 29.2966 33.0176 28.5867 33.131 27.1983C33.2474 25.7729 33.2499 23.9291 33.2499 21.2166V16.7833C33.2499 14.0707 33.2474 12.2268 33.131 10.8015C33.0176 9.41322 32.812 8.70325 32.5596 8.20798C31.9524 7.01629 30.9835 6.04741 29.7919 5.4402C29.2966 5.18785 28.5867 4.98226 27.1983 4.86883C25.7729 4.75239 23.9291 4.74992 21.2166 4.74992Z" fill="#0F0F0F"/>
</svg>
