<svg width="40" height="40" viewBox="0 0 40 40" fill="none" xmlns="http://www.w3.org/2000/svg">
<path d="M36.6666 5.78424V34.2156C36.6666 34.8656 36.4083 35.4891 35.9486 35.9488C35.4891 36.4084 34.8656 36.6666 34.2156 36.6666H5.78424C5.13419 36.6666 4.51077 36.4084 4.05112 35.9488C3.59149 35.4891 3.33325 34.8656 3.33325 34.2156V5.78424C3.33325 5.13419 3.59149 4.51077 4.05112 4.05114C4.51077 3.59149 5.13419 3.33325 5.78424 3.33325H34.2156C34.8656 3.33325 35.4891 3.59149 35.9486 4.05114C36.4083 4.51077 36.6666 5.13419 36.6666 5.78424ZM13.1372 16.0784H8.23522V31.7646H13.1372V16.0784ZM13.5784 10.6862C13.5809 10.3154 13.5105 9.94774 13.3709 9.60417C13.2314 9.26062 13.0256 8.9479 12.7652 8.6839C12.5049 8.41989 12.1951 8.20974 11.8535 8.06547C11.5119 7.9212 11.1452 7.84562 10.7744 7.84305H10.6862C9.93215 7.84305 9.20898 8.1426 8.67579 8.67579C8.1426 9.20899 7.84305 9.93215 7.84305 10.6862C7.84305 11.4402 8.1426 12.1634 8.67579 12.6966C9.20898 13.2298 9.93215 13.5293 10.6862 13.5293C11.057 13.5385 11.426 13.4744 11.7721 13.3409C12.1181 13.2074 12.4345 13.007 12.7031 12.7511C12.9717 12.4953 13.1872 12.189 13.3374 11.8499C13.4876 11.5107 13.5695 11.1453 13.5784 10.7744V10.6862ZM31.7646 22.2353C31.7646 17.5196 28.7646 15.6862 25.7843 15.6862C24.8085 15.6373 23.8368 15.8452 22.9663 16.289C22.096 16.7328 21.357 17.3971 20.8235 18.2156H20.6861V16.0784H16.0784V31.7646H20.9803V23.4214C20.9095 22.5671 21.1786 21.7191 21.7293 21.0619C22.28 20.4048 23.0678 19.9914 23.9215 19.9118H24.1078C25.6666 19.9118 26.8235 20.8921 26.8235 23.3626V31.7646H31.7255L31.7646 22.2353Z" stroke="black" stroke-width="2.352" stroke-linejoin="round"/>
</svg>
